<svg width="198" height="45" viewBox="0 0 198 45" fill="none" xmlns="http://www.w3.org/2000/svg">
<g filter="url(#filter0_d_920_146)">
<path d="M46.6469 22.8649L55.7731 15.9281V33.397H52.224V23.0493L46.6469 27.0824L41.0697 23.0493V33.397H37.4976V15.9281L46.6469 22.8649ZM62.6304 16.2277V33.397H59.0582V16.2277H62.6304ZM78.1144 26.1605V16.2277H81.6866V33.6966L69.4722 23.5333V33.397H65.9V15.905L78.1144 26.1605ZM97.4304 33.397L96.3012 31.0924H87.9815L86.8753 33.397H83.188L92.2451 15.9281L101.325 33.397H97.4304ZM92.1068 22.5192L89.5256 27.8659H94.734L92.1068 22.5192ZM106.755 25.7918C103.782 25.4461 101.846 23.5794 101.846 20.883C101.846 17.9792 104.519 15.9281 106.893 15.9281C108.599 15.9281 110.212 16.5734 111.525 18.1405L108.714 20.1916C108.253 19.7076 107.492 19.3389 106.893 19.3389C105.948 19.3389 105.303 19.915 105.303 20.8599C105.303 21.6435 105.879 22.3579 107.7 22.4732C110.627 22.6575 113.046 24.6395 113.046 27.9581C113.046 31.2998 110.258 33.6966 107.239 33.6966C105.28 33.6966 103.321 32.9821 101.685 31.1846L104.635 29.0182C105.418 30.0092 106.225 30.2627 107.239 30.2627C108.414 30.2627 109.336 29.3178 109.336 28.2116C109.336 26.8289 108.414 25.9762 106.755 25.7918ZM138.479 25.8148H142.097C141.59 30.2166 137.811 33.6966 133.248 33.6966C128.339 33.6966 124.421 29.7327 124.421 24.8238C124.421 19.915 128.339 15.9281 133.225 15.9281C136.428 15.9281 139.263 17.5874 140.807 20.0994L138.018 22.0814C136.774 20.2377 135.022 19.3389 133.248 19.3389C130.367 19.3389 128.085 21.7818 128.085 24.8238C128.085 27.8429 130.367 30.2627 133.248 30.2627C135.829 30.2627 137.995 28.396 138.479 25.8148ZM152.829 33.6966C147.898 33.6966 143.934 29.7096 143.934 24.8008C143.934 19.892 147.898 15.9281 152.806 15.9281C157.738 15.9281 161.702 19.892 161.702 24.8008C161.702 29.7096 157.738 33.6966 152.829 33.6966ZM152.806 19.3389C149.88 19.3389 147.598 21.7818 147.598 24.8008C147.598 27.8659 149.88 30.2627 152.829 30.2627C155.733 30.2627 158.038 27.8659 158.038 24.8008C158.038 21.7818 155.71 19.3389 152.806 19.3389ZM164.251 16.2277H171.211C176.166 16.2277 180.199 19.915 180.199 24.8008C180.199 29.7327 176.166 33.397 171.234 33.397H164.251V16.2277ZM167.823 30.1705H171.234C174.207 30.1705 176.534 27.889 176.534 24.8008C176.534 21.6896 174.207 19.4541 171.211 19.4541H167.823V30.1705ZM193.398 33.397H182.751V16.2277H191.877V19.4541H186.323V22.6575H192.776V25.8609H186.323V30.1705H193.398V33.397Z" fill="#424242"/>
</g>
<g filter="url(#filter1_d_920_146)">
<path d="M13.38 41.7553V10.8394C14.7872 5.34124 21.6583 5.76719 21.6583 5.76719V1.76901H22.3425V41.7553H21.0637V40.6951H19.8927V41.7553H18.4553V40.6951H17.2842V41.7553H15.8468V40.6951H14.6758V41.7553H13.38ZM19.8927 37.5085H21.0637V36.1961H19.8927V37.5085ZM19.8927 35.259H21.0637V33.9478H19.8927V35.259ZM19.8927 33.0095H21.0637V31.6972H19.8927V33.0095ZM19.8927 30.7601H21.0637V29.4477H19.8927V30.7601ZM19.8927 28.5106H21.0637V27.1982H19.8927V28.5106ZM19.8927 26.2611H21.0637V24.9487H19.8927V26.2611ZM19.8927 21.7622H21.0637V20.4498H19.8927V21.7622ZM19.8927 19.5127H21.0637V18.2003H19.8927V19.5127ZM19.8927 17.2632H21.0637V15.9508H19.8927V17.2632ZM19.8927 15.0137H21.0637V13.7014H19.8927V15.0137ZM19.8927 12.7643H21.0637V11.4519H19.8927V12.7643ZM19.8927 8.26647H21.0637V6.95409H19.8927V8.26647ZM17.2842 39.7568H18.4553V38.4444H17.2842V39.7568ZM17.2842 37.5074H18.4553V36.195H17.2842V37.5074ZM17.2842 35.2579H18.4553V33.9466H17.2842V35.2579ZM17.2842 33.0084H18.4553V31.696H17.2842V33.0084ZM17.2842 30.7589H18.4553V29.4465H17.2842V30.7589ZM17.2842 26.26H18.4553V24.9476H17.2842V26.26ZM17.2842 24.0105H18.4553V22.6981H17.2842V24.0105ZM17.2842 21.761H18.4553V20.4486H17.2842V21.761ZM17.2842 19.5115H18.4553V18.1992H17.2842V19.5115ZM17.2842 15.0137H18.4553V13.7014H17.2842V15.0137ZM17.2842 12.7643H18.4553V11.4519H17.2842V12.7643ZM17.2842 10.5148H18.4553V9.20241H17.2842V10.5148ZM15.8468 11.4519H14.6758V12.7643H15.8468V11.4519ZM15.8468 13.7014H14.6758V15.0137H15.8468V13.7014ZM15.8468 15.9508H14.6758V17.2632H15.8468V15.9508ZM15.8468 18.2003H14.6758V19.5127H15.8468V18.2003ZM15.8468 20.4498H14.6758V21.7622H15.8468V20.4498ZM15.8468 22.6993H14.6758V24.0117H15.8468V22.6993ZM15.8468 24.9487H14.6758V26.2611H15.8468V24.9487ZM15.8468 27.1982H14.6758V28.5106H15.8468V27.1982ZM15.8468 29.4477H14.6758V30.7601H15.8468V29.4477ZM15.8468 33.9466H14.6758V35.2579H15.8468V33.9466ZM15.8468 36.1961H14.6758V37.5085H15.8468V36.1961ZM15.8468 39.758V38.4456H14.6758V39.758H15.8468Z" fill="url(#paint0_linear_920_146)"/>
<path d="M12.5626 41.7553V18.1635C11.2245 13.9673 4.68395 14.2931 4.68395 14.2931V11.2412H4.03365V41.7542H5.25069V40.9449H6.36479V41.7542H7.7332V40.9449H8.84852V41.7542H10.2169V40.9449H11.3322V41.7542H12.565L12.5626 41.7553ZM6.36479 38.5147H5.25069V37.5131H6.36479V38.5147ZM6.36479 36.7982H5.25069V35.7978H6.36479V36.7982ZM6.36479 35.0817H5.25069V34.0802H6.36479V35.0817ZM6.36479 33.3653H5.25069V32.3637H6.36479V33.3653ZM6.36479 31.6488H5.25069V30.6473H6.36479V31.6488ZM6.36479 29.9323H5.25069V28.9308H6.36479V29.9323ZM6.36479 26.4994H5.25069V25.4979H6.36479V26.4994ZM6.36479 24.783H5.25069V23.7814H6.36479V24.783ZM6.36479 23.0665H5.25069V22.0649H6.36479V23.0665ZM6.36479 21.35H5.25069V20.3485H6.36479V21.35ZM6.36479 19.6336H5.25069V18.632H6.36479V19.6336ZM6.36479 16.2006H5.25069V15.1991H6.36479V16.2006ZM8.84731 40.2311H7.73199V39.2296H8.84731V40.2311ZM8.84731 38.5147H7.73199V37.5131H8.84731V38.5147ZM8.84731 36.7982H7.73199V35.7978H8.84731V36.7982ZM8.84731 35.0817H7.73199V34.0802H8.84731V35.0817ZM8.84731 33.3653H7.73199V32.3637H8.84731V33.3653ZM8.84731 29.9323H7.73199V28.9308H8.84731V29.9323ZM8.84731 28.2159H7.73199V27.2143H8.84731V28.2159ZM8.84731 26.4994H7.73199V25.4979H8.84731V26.4994ZM8.84731 24.783H7.73199V23.7814H8.84731V24.783ZM8.84731 21.35H7.73199V20.3485H8.84731V21.35ZM8.84731 19.6336H7.73199V18.632H8.84731V19.6336ZM8.84731 17.9171H7.73199V16.9156H8.84731V17.9171ZM10.2157 18.632H11.331V19.6336H10.2157V18.632ZM10.2157 20.3485H11.331V21.35H10.2157V20.3485ZM10.2157 22.0649H11.331V23.0665H10.2157V22.0649ZM10.2157 23.7814H11.331V24.783H10.2157V23.7814ZM10.2157 25.4979H11.331V26.4994H10.2157V25.4979ZM10.2157 27.2143H11.331V28.2159H10.2157V27.2143ZM10.2157 28.9308H11.331V29.9323H10.2157V28.9308ZM10.2157 30.6473H11.331V31.6488H10.2157V30.6473ZM10.2157 32.3637H11.331V33.3653H10.2157V32.3637ZM10.2157 35.7966H11.331V36.797H10.2157V35.7966ZM10.2157 37.5131H11.331V38.5147H10.2157V37.5131ZM10.2157 40.2311V39.2296H11.331V40.2311H10.2157Z" fill="url(#paint1_linear_920_146)"/>
<path d="M4.462 29.0556C4.22801 29.0556 4.03832 28.8756 4.03832 28.6537V10.1666C4.03832 9.94465 4.22801 9.76471 4.462 9.76471C4.69599 9.76471 4.88568 9.94465 4.88568 10.1666V28.6537C4.88568 28.8756 4.69599 29.0556 4.462 29.0556Z" fill="url(#paint2_linear_920_146)"/>
<path d="M21.9175 19.8924C21.6835 19.8924 21.4938 19.7125 21.4938 19.4905V1.00345C21.4938 0.781496 21.6835 0.601562 21.9175 0.601562C22.1515 0.601562 22.3412 0.781496 22.3412 1.00346V19.4905C22.3412 19.7125 22.1515 19.8924 21.9175 19.8924Z" fill="url(#paint3_linear_920_146)"/>
<path d="M2 41.9965C2 41.7745 2.18969 41.5946 2.42368 41.5946H23.9465C24.1804 41.5946 24.3701 41.7745 24.3701 41.9965C24.3701 42.2185 24.1804 42.3984 23.9465 42.3984H2.42368C2.18969 42.3984 2 42.2185 2 41.9965Z" fill="url(#paint4_linear_920_146)"/>
</g>
<defs>
<filter id="filter0_d_920_146" x="36.9436" y="15.905" width="157.008" height="18.8995" filterUnits="userSpaceOnUse" color-interpolation-filters="sRGB">
<feFlood flood-opacity="0" result="BackgroundImageFix"/>
<feColorMatrix in="SourceAlpha" type="matrix" values="0 0 0 0 0 0 0 0 0 0 0 0 0 0 0 0 0 0 127 0" result="hardAlpha"/>
<feOffset dy="0.554008"/>
<feGaussianBlur stdDeviation="0.277004"/>
<feComposite in2="hardAlpha" operator="out"/>
<feColorMatrix type="matrix" values="0 0 0 0 0 0 0 0 0 0 0 0 0 0 0 0 0 0 0.15 0"/>
<feBlend mode="normal" in2="BackgroundImageFix" result="effect1_dropShadow_920_146"/>
<feBlend mode="normal" in="SourceGraphic" in2="effect1_dropShadow_920_146" result="shape"/>
</filter>
<filter id="filter1_d_920_146" x="0.523782" y="0.232508" width="25.3226" height="44.7493" filterUnits="userSpaceOnUse" color-interpolation-filters="sRGB">
<feFlood flood-opacity="0" result="BackgroundImageFix"/>
<feColorMatrix in="SourceAlpha" type="matrix" values="0 0 0 0 0 0 0 0 0 0 0 0 0 0 0 0 0 0 127 0" result="hardAlpha"/>
<feOffset dy="1.10716"/>
<feGaussianBlur stdDeviation="0.738109"/>
<feComposite in2="hardAlpha" operator="out"/>
<feColorMatrix type="matrix" values="0 0 0 0 0 0 0 0 0 0 0 0 0 0 0 0 0 0 0.2 0"/>
<feBlend mode="normal" in2="BackgroundImageFix" result="effect1_dropShadow_920_146"/>
<feBlend mode="normal" in="SourceGraphic" in2="effect1_dropShadow_920_146" result="shape"/>
</filter>
<linearGradient id="paint0_linear_920_146" x1="13.1851" y1="0.601562" x2="13.1851" y2="42.3984" gradientUnits="userSpaceOnUse">
<stop stop-color="#B72111"/>
<stop offset="1" stop-color="#EF5523"/>
</linearGradient>
<linearGradient id="paint1_linear_920_146" x1="13.1851" y1="0.601562" x2="13.1851" y2="42.3984" gradientUnits="userSpaceOnUse">
<stop stop-color="#B72111"/>
<stop offset="1" stop-color="#EF5523"/>
</linearGradient>
<linearGradient id="paint2_linear_920_146" x1="13.1851" y1="0.601562" x2="13.1851" y2="42.3984" gradientUnits="userSpaceOnUse">
<stop stop-color="#B72111"/>
<stop offset="1" stop-color="#EF5523"/>
</linearGradient>
<linearGradient id="paint3_linear_920_146" x1="13.1851" y1="0.601562" x2="13.1851" y2="42.3984" gradientUnits="userSpaceOnUse">
<stop stop-color="#B72111"/>
<stop offset="1" stop-color="#EF5523"/>
</linearGradient>
<linearGradient id="paint4_linear_920_146" x1="13.1851" y1="0.601562" x2="13.1851" y2="42.3984" gradientUnits="userSpaceOnUse">
<stop stop-color="#B72111"/>
<stop offset="1" stop-color="#EF5523"/>
</linearGradient>
</defs>
</svg>
